#N canvas 949 0 1920 989 12;
#X obj 381 181 route Temperatre Humidity;
#X obj 427 62 comport 5 9600;
#X obj 412 471 print Hum;
#X obj 423 290 unpack f f;
#X obj 641 428 t b f;
#X obj 581 474 bang;
#X obj 439 628 readsf~ 2;
#X obj 445 742 dac~ 1 2;
#X obj 243 477 print Temp;
#X msg 284 546 open C:/Users/aless/OneDrive/Desktop/audio/pd.wav(;
#X obj 422 380 pack f f;
#X connect 0 0 3 0;
#X connect 0 1 3 0;
#X connect 0 2 3 0;
#X connect 1 0 0 0;
#X connect 1 1 0 0;
#X connect 3 0 10 0;
#X connect 3 1 10 1;
#X connect 4 0 5 0;
#X connect 5 0 9 0;
#X connect 6 0 7 0;
#X connect 6 1 7 1;
#X connect 6 2 7 1;
#X connect 9 0 6 0;
#X connect 10 0 8 0;
#X connect 10 0 2 0;
#X connect 10 0 4 0;
